<svg width="238" height="193" viewBox="0 0 238 193" fill="none" xmlns="http://www.w3.org/2000/svg">
<path d="M0 135.5V117H41C46.2 117 46.8333 119.667 46.5 121V131C46.5 131 18 128 16.5 131C15 134 18.5 140.5 21 142.5C23.5 144.5 46.5 142.5 46.5 142.5V165C46.5 172.2 42.8333 174 41 174L16.5 181.5L11.5 166.5L31.5 161V156C28.5 156.5 20.3 157 11.5 155C2.7 153 0.166667 141.167 0 135.5Z" fill="#20460A"/>
<path d="M69.588 130C63.588 129.6 62.4213 121.833 62.588 118C70.4214 117.667 87.2881 117 92.0881 117C96.8881 117 97.7548 118.667 97.5881 119.5V177H87.5881C82.7881 177 80.2547 174.333 79.588 173H55.588C51.188 173 50.7547 170 51.088 168.5V139.5C51.088 135.5 53.4214 134.5 54.588 134.5L79.588 134V130C78.7547 130.167 75.588 130.4 69.588 130Z" fill="#20460A"/>
<path d="M67.0882 151.5C68.2882 145.9 75.2549 145.833 78.5882 146.5V153.5C78.5882 154.5 77.3882 156.8 72.5882 158C67.7882 159.2 66.9215 154.167 67.0882 151.5Z" fill="#C1D95F"/>
<path d="M209.588 130C203.588 129.6 202.421 121.833 202.588 118C210.421 117.667 227.288 117 232.088 117C236.888 117 237.755 118.667 237.588 119.5V177H227.588C222.788 177 220.255 174.333 219.588 173H195.588C191.188 173 190.755 170 191.088 168.5V139.5C191.088 135.5 193.421 134.5 194.588 134.5L219.588 134V130C218.755 130.167 215.588 130.4 209.588 130Z" fill="#20460A"/>
<path d="M207.088 151.5C208.288 145.9 215.255 145.833 218.588 146.5V153.5C218.588 154.5 217.388 156.8 212.588 158C207.788 159.2 206.922 154.167 207.088 151.5Z" fill="#C1D95F"/>
<path d="M120 127.092C120 117.892 108.667 116.592 103 117.092L103.5 177.092H120.5L120 150.092C121 144.092 122.5 145.092 129.5 144.592C135.1 144.192 136.5 148.092 136.5 150.092C136.333 155.925 136.556 169.682 136.5 178.092C136.445 186.301 138 187 140.5 188.5C143 190 150.167 191.925 153.5 191.592V134.092C154.3 128.492 149.833 127.092 147.5 127.092H120Z" fill="#20460A"/>
<path d="M161.529 137.5C158.329 137.1 157.863 135 158.029 134C158.029 134 158.002 128.515 158 125C158 124.219 161.498 124 163.499 123C165.5 122 165.529 119.167 165.529 117.5C165.129 113.1 167.363 111.333 168.529 111H177.529C179.529 111 179.499 112.5 179.529 113.5V121.5H190.029V129.5C189.629 135.1 182.863 137.5 179.529 138C179.529 148.167 178.876 169.938 179.529 175.5C179.999 179.5 185.499 180 185.529 182.5V192.5H174.529C167.329 192.5 162.529 182.674 162.529 177.837V142.5C162.529 138.1 161.863 137.333 161.529 137.5Z" fill="#20460A"/>
<path d="M69 101.5H33L161 0L222 101.5H118.5L146.5 78.5H181.5L155.5 34L69 101.5Z" fill="#20460A"/>
<path d="M0 135.5V117H41C46.2 117 46.8333 119.667 46.5 121V131C46.5 131 18 128 16.5 131C15 134 18.5 140.5 21 142.5C23.5 144.5 46.5 142.5 46.5 142.5V165C46.5 172.2 42.8333 174 41 174L16.5 181.5L11.5 166.5L31.5 161V156C28.5 156.5 20.3 157 11.5 155C2.7 153 0.166667 141.167 0 135.5Z" stroke="#20460A"/>
<path d="M69.588 130C63.588 129.6 62.4213 121.833 62.588 118C70.4214 117.667 87.2881 117 92.0881 117C96.8881 117 97.7548 118.667 97.5881 119.5V177H87.5881C82.7881 177 80.2547 174.333 79.588 173H55.588C51.188 173 50.7547 170 51.088 168.5V139.5C51.088 135.5 53.4214 134.5 54.588 134.5L79.588 134V130C78.7547 130.167 75.588 130.4 69.588 130Z" stroke="#20460A"/>
<path d="M67.0882 151.5C68.2882 145.9 75.2549 145.833 78.5882 146.5V153.5C78.5882 154.5 77.3882 156.8 72.5882 158C67.7882 159.2 66.9215 154.167 67.0882 151.5Z" stroke="#20460A"/>
<path d="M209.588 130C203.588 129.6 202.421 121.833 202.588 118C210.421 117.667 227.288 117 232.088 117C236.888 117 237.755 118.667 237.588 119.5V177H227.588C222.788 177 220.255 174.333 219.588 173H195.588C191.188 173 190.755 170 191.088 168.5V139.5C191.088 135.5 193.421 134.5 194.588 134.5L219.588 134V130C218.755 130.167 215.588 130.4 209.588 130Z" stroke="#20460A"/>
<path d="M207.088 151.5C208.288 145.9 215.255 145.833 218.588 146.5V153.5C218.588 154.5 217.388 156.8 212.588 158C207.788 159.2 206.922 154.167 207.088 151.5Z" stroke="#20460A"/>
<path d="M120 127.092C120 117.892 108.667 116.592 103 117.092L103.5 177.092H120.5L120 150.092C121 144.092 122.5 145.092 129.5 144.592C135.1 144.192 136.5 148.092 136.5 150.092C136.333 155.925 136.556 169.682 136.5 178.092C136.445 186.301 138 187 140.5 188.5C143 190 150.167 191.925 153.5 191.592V134.092C154.3 128.492 149.833 127.092 147.5 127.092H120Z" stroke="#20460A"/>
<path d="M161.529 137.5C158.329 137.1 157.863 135 158.029 134C158.029 134 158.002 128.515 158 125C158 124.219 161.498 124 163.499 123C165.5 122 165.529 119.167 165.529 117.5C165.129 113.1 167.363 111.333 168.529 111H177.529C179.529 111 179.499 112.5 179.529 113.5V121.5H190.029V129.5C189.629 135.1 182.863 137.5 179.529 138C179.529 148.167 178.876 169.938 179.529 175.5C179.999 179.5 185.499 180 185.529 182.5V192.5H174.529C167.329 192.5 162.529 182.674 162.529 177.837V142.5C162.529 138.1 161.863 137.333 161.529 137.5Z" stroke="#20460A"/>
<path d="M69 101.5H33L161 0L222 101.5H118.5L146.5 78.5H181.5L155.5 34L69 101.5Z" stroke="#20460A"/>
</svg>